<svg width="36" height="36" viewBox="0 0 36 36" fill="none" xmlns="http://www.w3.org/2000/svg">
<path d="M36 27C36 28.0609 35.5786 29.0783 34.8284 29.8284C34.0783 30.5786 33.0609 31 32 31H4C2.93913 31 1.92172 30.5786 1.17157 29.8284C0.421427 29.0783 0 28.0609 0 27V9C0 7.93913 0.421427 6.92172 1.17157 6.17157C1.92172 5.42143 2.93913 5 4 5H32C33.0609 5 34.0783 5.42143 34.8284 6.17157C35.5786 6.92172 36 7.93913 36 9V27Z" fill="#75AADB"/>
<path d="M0 13H36V23H0V13Z" fill="#EEEEEE"/>
<path d="M18 13L18.488 15.548L19.914 13.381L19.389 15.921L21.535 14.464L20.078 16.611L22.619 16.087L20.452 17.512L23 18L20.452 18.488L22.619 19.914L20.078 19.389L21.535 21.535L19.389 20.078L19.914 22.619L18.488 20.452L18 23L17.512 20.452L16.087 22.619L16.611 20.078L14.464 21.535L15.921 19.389L13.381 19.914L15.548 18.488L13 18L15.548 17.512L13.381 16.087L15.921 16.611L14.464 14.464L16.611 15.921L16.087 13.381L17.512 15.548L18 13Z" fill="#FCBF49"/>
<path d="M18 14.33L18.242 15.595L18.358 16.2L18.697 15.686L19.405 14.61L19.144 15.871L19.019 16.475L19.529 16.129L20.595 15.406L19.872 16.472L19.526 16.982L20.129 16.857L21.391 16.597L20.315 17.305L19.8 17.642L20.405 17.758L21.67 18L20.405 18.242L19.8 18.358L20.314 18.697L21.39 19.405L20.128 19.144L19.524 19.019L19.87 19.529L20.593 20.594L19.528 19.871L19.018 19.525L19.143 20.129L19.404 21.391L18.696 20.315L18.358 19.8L18.242 20.405L18 21.67L17.758 20.405L17.642 19.8L17.303 20.315L16.595 21.391L16.855 20.129L16.98 19.526L16.47 19.872L15.404 20.595L16.127 19.529L16.473 19.019L15.869 19.144L14.608 19.405L15.684 18.697L16.198 18.358L15.593 18.242L14.33 18L15.595 17.758L16.2 17.642L15.685 17.303L14.609 16.595L15.87 16.855L16.473 16.98L16.127 16.47L15.403 15.404L16.469 16.128L16.979 16.474L16.854 15.871L16.594 14.61L17.302 15.686L17.641 16.201L17.757 15.596L18 14.33ZM18 13L17.512 15.548L16.087 13.381L16.611 15.922L14.464 14.465L15.921 16.612L13.381 16.088L15.548 17.513L13 18L15.548 18.488L13.381 19.914L15.921 19.389L14.464 21.535L16.611 20.078L16.087 22.619L17.512 20.452L18 23L18.488 20.452L19.914 22.619L19.389 20.078L21.535 21.535L20.078 19.389L22.619 19.914L20.452 18.488L23 18L20.452 17.512L22.619 16.087L20.078 16.611L21.535 14.464L19.389 15.921L19.914 13.38L18.488 15.547L18 13Z" fill="#843511"/>
<path d="M18 20C19.1046 20 20 19.1046 20 18C20 16.8954 19.1046 16 18 16C16.8954 16 16 16.8954 16 18C16 19.1046 16.8954 20 18 20Z" fill="#FCBF49"/>
<path d="M18 20.125C16.828 20.125 15.875 19.172 15.875 18C15.875 16.828 16.828 15.875 18 15.875C19.172 15.875 20.125 16.828 20.125 18C20.125 19.172 19.172 20.125 18 20.125ZM18 16.125C16.966 16.125 16.125 16.966 16.125 18C16.125 19.034 16.966 19.875 18 19.875C19.034 19.875 19.875 19.034 19.875 18C19.875 16.966 19.034 16.125 18 16.125Z" fill="#843511"/>
<path d="M17.7998 17.774C17.7998 17.929 17.5388 18.054 17.2168 18.054C16.8938 18.054 16.6328 17.929 16.6328 17.774C16.6328 17.619 16.8938 17.494 17.2168 17.494C17.5388 17.494 17.7998 17.619 17.7998 17.774ZM19.3528 17.75C19.3528 17.589 19.0868 17.458 18.7588 17.458C18.4308 17.458 18.1648 17.588 18.1648 17.75C18.1648 17.912 18.4308 18.042 18.7588 18.042C19.0878 18.042 19.3528 17.911 19.3528 17.75Z" fill="#C16540"/>
<path d="M17.4609 18.874C17.4609 18.748 17.7069 18.645 18.0089 18.645C18.3119 18.645 18.5569 18.747 18.5569 18.874C18.5569 19 18.3109 19.103 18.0089 19.103C17.7059 19.103 17.4609 19 17.4609 18.874Z" fill="#ED8662"/>
</svg>
