<svg width="64" height="64" viewBox="0 0 64 64" fill="none" xmlns="http://www.w3.org/2000/svg">
<path d="M0 32V43C0 49.075 3.373 54 10 54H54C60.627 54 64 49.075 64 43V32H0Z" fill="#EC1C24"/>
<path d="M54 10H23V32H64V21C64 14.925 60.627 10 54 10Z" fill="#E6E7E8"/>
<path d="M23 10H10C3.373 10 0 14.925 0 21V32H23V10Z" fill="#2B3990"/>
<path d="M11.5222 13.9971L13.7692 18.5511L18.7992 19.2901L15.1612 22.8381L16.0212 27.8381L11.5212 25.4741L7.02119 27.8381L7.88119 22.8381L4.24219 19.2901L9.27219 18.5511L11.5222 13.9971Z" fill="#E6E7E8"/>
</svg>
